<mxfile host="app.diagrams.net" agent="Mozilla/5.0 (Windows NT 10.0; Win64; x64) AppleWebKit/537.36 (KHTML, like Gecko) Chrome/134.0.0.0 Safari/537.36" version="26.1.1">
  <diagram name="Page-1" id="10a91c8b-09ff-31b1-d368-03940ed4cc9e">
    <mxGraphModel dx="1434" dy="1640" grid="1" gridSize="10" guides="1" tooltips="1" connect="1" arrows="1" fold="1" page="1" pageScale="1" pageWidth="1100" pageHeight="850" background="none" math="0" shadow="0">
      <root>
        <mxCell id="0" />
        <mxCell id="1" parent="0" />
        <mxCell id="62893188c0fa7362-1" value="User" style="whiteSpace=wrap;html=1;rounded=1;shadow=1;labelBackgroundColor=none;strokeWidth=1;fontFamily=Verdana;fontSize=12;align=center;" parent="1" vertex="1">
          <mxGeometry x="60" y="-330" width="120" height="60" as="geometry" />
        </mxCell>
        <mxCell id="DzEPvGfH_0DTcyFTkrWB-1" value="Group" style="whiteSpace=wrap;html=1;rounded=1;shadow=1;labelBackgroundColor=none;strokeWidth=1;fontFamily=Verdana;fontSize=12;align=center;" vertex="1" parent="1">
          <mxGeometry x="250" y="70" width="120" height="60" as="geometry" />
        </mxCell>
        <mxCell id="DzEPvGfH_0DTcyFTkrWB-2" value="Project" style="whiteSpace=wrap;html=1;rounded=1;shadow=1;labelBackgroundColor=none;strokeWidth=1;fontFamily=Verdana;fontSize=12;align=center;" vertex="1" parent="1">
          <mxGeometry x="250" y="-120" width="120" height="60" as="geometry" />
        </mxCell>
        <mxCell id="DzEPvGfH_0DTcyFTkrWB-3" value="Task" style="whiteSpace=wrap;html=1;rounded=1;shadow=1;labelBackgroundColor=none;strokeWidth=1;fontFamily=Verdana;fontSize=12;align=center;" vertex="1" parent="1">
          <mxGeometry x="640" y="-30" width="120" height="60" as="geometry" />
        </mxCell>
        <mxCell id="DzEPvGfH_0DTcyFTkrWB-4" value="UserPoject" style="whiteSpace=wrap;html=1;rounded=1;shadow=1;labelBackgroundColor=none;strokeWidth=1;fontFamily=Verdana;fontSize=12;align=center;" vertex="1" parent="1">
          <mxGeometry x="60" y="-120" width="120" height="60" as="geometry" />
        </mxCell>
        <mxCell id="DzEPvGfH_0DTcyFTkrWB-6" value="id&lt;div&gt;project_id&lt;br&gt;user_id&lt;br&gt;owner_id&lt;/div&gt;" style="rounded=0;whiteSpace=wrap;html=1;" vertex="1" parent="1">
          <mxGeometry x="60" y="-180" width="120" height="60" as="geometry" />
        </mxCell>
        <mxCell id="DzEPvGfH_0DTcyFTkrWB-7" value="id&lt;br&gt;name&lt;br&gt;email" style="rounded=0;whiteSpace=wrap;html=1;" vertex="1" parent="1">
          <mxGeometry x="60" y="-390" width="120" height="60" as="geometry" />
        </mxCell>
        <mxCell id="DzEPvGfH_0DTcyFTkrWB-8" style="edgeStyle=orthogonalEdgeStyle;rounded=0;orthogonalLoop=1;jettySize=auto;html=1;exitX=0.5;exitY=1;exitDx=0;exitDy=0;" edge="1" parent="1" source="DzEPvGfH_0DTcyFTkrWB-7" target="DzEPvGfH_0DTcyFTkrWB-7">
          <mxGeometry relative="1" as="geometry" />
        </mxCell>
        <mxCell id="DzEPvGfH_0DTcyFTkrWB-9" value="id&lt;br&gt;name&lt;br&gt;owner_id" style="rounded=0;whiteSpace=wrap;html=1;" vertex="1" parent="1">
          <mxGeometry x="250" y="-180" width="120" height="60" as="geometry" />
        </mxCell>
        <mxCell id="DzEPvGfH_0DTcyFTkrWB-12" value="id&lt;br&gt;name&lt;br&gt;project_id" style="rounded=0;whiteSpace=wrap;html=1;" vertex="1" parent="1">
          <mxGeometry x="250" y="10" width="120" height="60" as="geometry" />
        </mxCell>
        <mxCell id="DzEPvGfH_0DTcyFTkrWB-13" value="name&lt;br&gt;description&lt;br&gt;status&lt;br&gt;project_id&lt;br&gt;&lt;code data-end=&quot;294&quot; data-start=&quot;286&quot;&gt;due_at&lt;br&gt;created_at&lt;br&gt;updated_at&lt;/code&gt;" style="rounded=0;whiteSpace=wrap;html=1;" vertex="1" parent="1">
          <mxGeometry x="640" y="-130" width="120" height="100" as="geometry" />
        </mxCell>
        <mxCell id="DzEPvGfH_0DTcyFTkrWB-16" value="Text" style="text;html=1;align=center;verticalAlign=middle;resizable=0;points=[];autosize=1;strokeColor=none;fillColor=none;" vertex="1" parent="1">
          <mxGeometry x="1145" y="-45" width="50" height="30" as="geometry" />
        </mxCell>
        <mxCell id="DzEPvGfH_0DTcyFTkrWB-17" value="" style="shape=flexArrow;endArrow=classic;startArrow=classic;html=1;rounded=0;width=20;endSize=4.67;" edge="1" parent="1">
          <mxGeometry width="100" height="100" relative="1" as="geometry">
            <mxPoint x="119.5" y="-180" as="sourcePoint" />
            <mxPoint x="120" y="-270" as="targetPoint" />
            <Array as="points" />
          </mxGeometry>
        </mxCell>
        <mxCell id="DzEPvGfH_0DTcyFTkrWB-18" value="" style="shape=flexArrow;endArrow=classic;startArrow=classic;html=1;rounded=0;width=20;endSize=4.67;" edge="1" parent="1">
          <mxGeometry width="100" height="100" relative="1" as="geometry">
            <mxPoint x="180" y="-90" as="sourcePoint" />
            <mxPoint x="250" y="-90.5" as="targetPoint" />
            <Array as="points">
              <mxPoint x="190" y="-90.5" />
            </Array>
          </mxGeometry>
        </mxCell>
        <mxCell id="DzEPvGfH_0DTcyFTkrWB-19" value="" style="shape=flexArrow;endArrow=classic;startArrow=classic;html=1;rounded=0;width=20;endSize=4.67;" edge="1" parent="1">
          <mxGeometry width="100" height="100" relative="1" as="geometry">
            <mxPoint x="309.5" y="15" as="sourcePoint" />
            <mxPoint x="310" y="-75" as="targetPoint" />
            <Array as="points">
              <mxPoint x="309.5" y="-25" />
            </Array>
          </mxGeometry>
        </mxCell>
        <mxCell id="DzEPvGfH_0DTcyFTkrWB-21" value="" style="shape=flexArrow;endArrow=classic;startArrow=classic;html=1;rounded=0;width=20;endSize=4.67;" edge="1" parent="1">
          <mxGeometry width="100" height="100" relative="1" as="geometry">
            <mxPoint x="370" y="-90.25" as="sourcePoint" />
            <mxPoint x="636" y="-91" as="targetPoint" />
            <Array as="points">
              <mxPoint x="380" y="-90.75" />
            </Array>
          </mxGeometry>
        </mxCell>
        <mxCell id="DzEPvGfH_0DTcyFTkrWB-26" value="" style="shape=flexArrow;endArrow=classic;startArrow=classic;html=1;rounded=0;width=20;endSize=4.67;entryX=1;entryY=1;entryDx=0;entryDy=0;exitX=0.5;exitY=0;exitDx=0;exitDy=0;" edge="1" parent="1" source="DzEPvGfH_0DTcyFTkrWB-9">
          <mxGeometry width="100" height="100" relative="1" as="geometry">
            <mxPoint x="309.5" y="-190" as="sourcePoint" />
            <mxPoint x="180" y="-280" as="targetPoint" />
            <Array as="points">
              <mxPoint x="309.5" y="-230" />
              <mxPoint x="310" y="-280" />
            </Array>
          </mxGeometry>
        </mxCell>
        <mxCell id="DzEPvGfH_0DTcyFTkrWB-27" value="TaskUserGroup" style="whiteSpace=wrap;html=1;rounded=1;shadow=1;labelBackgroundColor=none;strokeWidth=1;fontFamily=Verdana;fontSize=12;align=center;" vertex="1" parent="1">
          <mxGeometry x="440" y="70" width="150" height="60" as="geometry" />
        </mxCell>
        <mxCell id="DzEPvGfH_0DTcyFTkrWB-28" value="id&lt;br&gt;task_id&lt;br&gt;group_id&lt;br&gt;user_id (nullable)" style="rounded=0;whiteSpace=wrap;html=1;" vertex="1" parent="1">
          <mxGeometry x="440" y="-5" width="150" height="75" as="geometry" />
        </mxCell>
        <mxCell id="DzEPvGfH_0DTcyFTkrWB-30" value="" style="shape=flexArrow;endArrow=classic;startArrow=classic;html=1;rounded=0;width=20;endSize=4.67;" edge="1" parent="1">
          <mxGeometry width="100" height="100" relative="1" as="geometry">
            <mxPoint x="370" y="10.5" as="sourcePoint" />
            <mxPoint x="440" y="10" as="targetPoint" />
            <Array as="points">
              <mxPoint x="380" y="10" />
            </Array>
          </mxGeometry>
        </mxCell>
        <mxCell id="DzEPvGfH_0DTcyFTkrWB-31" value="" style="shape=flexArrow;endArrow=classic;startArrow=classic;html=1;rounded=0;width=20;endSize=4.67;" edge="1" parent="1">
          <mxGeometry width="100" height="100" relative="1" as="geometry">
            <mxPoint x="570" y="10.5" as="sourcePoint" />
            <mxPoint x="640" y="10" as="targetPoint" />
            <Array as="points">
              <mxPoint x="580" y="10" />
            </Array>
          </mxGeometry>
        </mxCell>
      </root>
    </mxGraphModel>
  </diagram>
</mxfile>
